<?xml version="1.0" encoding="utf-8"?>
<svg xmlns="http://www.w3.org/2000/svg"
	xmlns:xlink="http://www.w3.org/1999/xlink"
	width="92px" height="92px" viewBox="0 0 92 92">
<path fillRule="evenodd" d="M 88.51 41.94C 88.51 41.94 41.93 88.53 41.93 88.53 37.71 92.75 30.95 93.2 26.21 89.59 26.21 89.59 21.58 86.06 21.58 86.06 21.57 86.06 21.56 86.06 21.55 86.07 21.31 86.22 21.06 86.36 20.8 86.48 20.75 86.51 20.7 86.53 20.65 86.56 20.41 86.68 20.17 86.79 19.92 86.88 19.86 86.91 19.79 86.93 19.72 86.96 19.53 87.03 19.34 87.1 19.14 87.16 19.04 87.19 18.94 87.23 18.84 87.25 18.65 87.31 18.45 87.36 18.25 87.41 18.14 87.43 18.02 87.46 17.91 87.48 17.7 87.52 17.49 87.56 17.28 87.59 17.16 87.61 17.04 87.62 16.91 87.63 16.77 87.65 16.62 87.66 16.48 87.67 16.3 87.68 16.13 87.69 15.95 87.7 15.81 87.7 15.66 87.7 15.51 87.7 15.39 87.7 15.27 87.7 15.16 87.69 14.94 87.68 14.72 87.66 14.51 87.64 14.4 87.63 14.29 87.62 14.19 87.6 13.96 87.57 13.73 87.54 13.51 87.5 13.43 87.48 13.35 87.46 13.27 87.44 13.07 87.4 12.87 87.35 12.67 87.3 12.61 87.28 12.54 87.26 12.47 87.24 12.23 87.17 11.99 87.09 11.75 87 11.68 86.98 11.62 86.95 11.55 86.93 11.31 86.83 11.06 86.73 10.82 86.62 10.78 86.6 10.74 86.57 10.69 86.55 10.45 86.44 10.22 86.31 9.98 86.18 9.96 86.17 9.94 86.16 9.93 86.15 9.68 86 9.44 85.85 9.21 85.68 9.17 85.65 9.12 85.62 9.08 85.59 8.85 85.43 8.63 85.26 8.41 85.08 8.38 85.05 8.34 85.01 8.3 84.98 8.08 84.79 7.85 84.59 7.64 84.38 7.43 84.17 7.23 83.95 7.04 83.72 7.01 83.68 6.97 83.65 6.94 83.61 6.76 83.39 6.59 83.17 6.43 82.94 6.4 82.9 6.37 82.85 6.34 82.81 6.18 82.58 6.02 82.34 5.88 82.09 5.87 82.08 5.86 82.06 5.85 82.04 5.71 81.81 5.59 81.57 5.47 81.33 5.45 81.28 5.43 81.24 5.4 81.2 5.29 80.96 5.19 80.71 5.09 80.47 5.07 80.4 5.04 80.34 5.02 80.27 4.93 80.03 4.85 79.79 4.78 79.55 4.76 79.48 4.74 79.41 4.72 79.35 4.67 79.15 4.62 78.95 4.58 78.75 4.56 78.67 4.54 78.59 4.53 78.51 4.48 78.29 4.45 78.06 4.42 77.83 4.41 77.73 4.39 77.62 4.38 77.51 4.36 77.3 4.34 77.08 4.33 76.86 4.33 76.75 4.33 76.63 4.32 76.51 4.32 76.36 4.32 76.21 4.33 76.07 4.33 75.89 4.34 75.72 4.35 75.54 4.36 75.39 4.37 75.25 4.39 75.1 4.4 74.98 4.42 74.86 4.43 74.73 4.46 74.53 4.5 74.32 4.54 74.11 4.56 74 4.59 73.88 4.61 73.77 4.66 73.57 4.71 73.37 4.77 73.18 4.8 73.07 4.83 72.97 4.86 72.87 4.92 72.68 4.99 72.49 5.06 72.3 5.09 72.23 5.11 72.16 5.14 72.1 5.24 71.85 5.35 71.61 5.46 71.37 5.49 71.32 5.51 71.26 5.54 71.21 5.67 70.96 5.8 70.71 5.95 70.46 5.96 70.46 5.96 70.45 5.97 70.44 5.97 70.44 2.44 65.81 2.44 65.81-1.18 61.06-0.73 54.3 3.49 50.08 3.49 50.08 50.07 3.49 50.07 3.49 54.29-0.73 61.05-1.18 65.79 2.43 65.79 2.43 70.42 5.96 70.42 5.96 70.43 5.96 70.44 5.96 70.44 5.95 70.69 5.8 70.94 5.66 71.2 5.54 71.25 5.51 71.3 5.49 71.35 5.46 71.59 5.34 71.83 5.23 72.08 5.14 72.14 5.11 72.21 5.09 72.27 5.06 72.47 4.99 72.66 4.92 72.86 4.86 72.96 4.83 73.05 4.8 73.15 4.77 73.35 4.71 73.55 4.66 73.75 4.61 73.86 4.59 73.98 4.56 74.09 4.54 74.3 4.5 74.51 4.46 74.72 4.43 74.84 4.41 74.96 4.4 75.08 4.39 75.23 4.37 75.38 4.36 75.53 4.35 75.7 4.34 75.87 4.33 76.04 4.32 76.19 4.32 76.34 4.32 76.49 4.32 76.61 4.32 76.73 4.32 76.84 4.33 77.06 4.34 77.28 4.36 77.49 4.38 77.6 4.39 77.71 4.4 77.81 4.42 78.04 4.45 78.27 4.48 78.49 4.53 78.57 4.54 78.65 4.56 78.72 4.58 78.93 4.62 79.13 4.67 79.32 4.72 79.39 4.74 79.46 4.76 79.53 4.78 79.77 4.85 80.01 4.93 80.25 5.02 80.32 5.04 80.38 5.07 80.45 5.09 80.69 5.19 80.94 5.29 81.18 5.4 81.22 5.42 81.26 5.45 81.31 5.47 81.55 5.58 81.78 5.71 82.02 5.84 82.04 5.86 82.05 5.86 82.07 5.88 82.32 6.02 82.56 6.17 82.79 6.34 82.83 6.37 82.88 6.4 82.92 6.43 83.15 6.59 83.37 6.76 83.59 6.94 83.62 6.97 83.66 7.01 83.7 7.04 83.92 7.23 84.14 7.43 84.36 7.64 84.57 7.85 84.77 8.07 84.96 8.3 84.99 8.34 85.03 8.37 85.06 8.41 85.24 8.63 85.41 8.85 85.57 9.08 85.6 9.12 85.63 9.17 85.66 9.21 85.82 9.44 85.98 9.68 86.12 9.93 86.13 9.94 86.14 9.96 86.15 9.98 86.29 10.21 86.41 10.45 86.53 10.69 86.55 10.74 86.57 10.78 86.59 10.82 86.71 11.06 86.81 11.31 86.91 11.55 86.93 11.62 86.96 11.68 86.98 11.75 87.07 11.99 87.15 12.23 87.22 12.47 87.24 12.54 87.26 12.61 87.28 12.68 87.33 12.87 87.38 13.07 87.42 13.28 87.44 13.35 87.46 13.43 87.47 13.51 87.52 13.73 87.55 13.96 87.58 14.19 87.59 14.29 87.61 14.4 87.62 14.51 87.64 14.72 87.66 14.94 87.67 15.16 87.67 15.28 87.67 15.39 87.68 15.51 87.68 15.66 87.68 15.81 87.67 15.96 87.67 16.13 87.66 16.3 87.65 16.48 87.64 16.62 87.63 16.77 87.61 16.92 87.6 17.04 87.58 17.16 87.57 17.28 87.54 17.49 87.5 17.7 87.46 17.91 87.44 18.03 87.41 18.14 87.39 18.25 87.34 18.45 87.29 18.65 87.23 18.86 87.2 18.95 87.17 19.05 87.14 19.14 87.08 19.34 87.01 19.54 86.94 19.73 86.91 19.79 86.89 19.86 86.86 19.92 86.76 20.17 86.65 20.41 86.54 20.65 86.51 20.71 86.49 20.76 86.46 20.81 86.33 21.06 86.19 21.31 86.05 21.56 86.04 21.57 86.04 21.57 86.03 21.58 86.03 21.58 89.56 26.21 89.56 26.21 93.18 30.96 92.73 37.72 88.51 41.94ZM 63.71 5.16C 60.33 2.58 55.5 2.91 52.5 5.92 52.5 5.92 5.92 52.51 5.92 52.51 2.91 55.52 2.58 60.34 5.16 63.73 5.16 63.73 8.22 67.73 8.22 67.73 8.22 67.73 67.71 8.22 67.71 8.22 67.71 8.22 63.71 5.16 63.71 5.16ZM 84.25 15.57C 84.24 15.38 84.23 15.19 84.22 15 84.21 14.93 84.2 14.86 84.2 14.8 84.18 14.62 84.15 14.45 84.12 14.28 84.11 14.2 84.09 14.12 84.08 14.04 84.04 13.88 84 13.72 83.96 13.56 83.94 13.48 83.91 13.39 83.88 13.31 83.84 13.16 83.79 13.01 83.73 12.87 83.7 12.78 83.66 12.68 83.63 12.59 83.57 12.46 83.5 12.32 83.44 12.19 83.39 12.09 83.35 12 83.3 11.91 83.23 11.78 83.15 11.65 83.07 11.52 83.02 11.43 82.97 11.35 82.91 11.26 82.82 11.12 82.71 10.99 82.61 10.86 82.56 10.79 82.51 10.71 82.45 10.65 82.29 10.45 82.12 10.25 81.93 10.07 81.75 9.88 81.55 9.71 81.35 9.55 81.29 9.49 81.21 9.44 81.14 9.39 81.01 9.29 80.88 9.18 80.74 9.09 80.65 9.03 80.57 8.98 80.48 8.93 80.35 8.85 80.22 8.77 80.09 8.7 80 8.65 79.91 8.61 79.81 8.56 79.68 8.5 79.54 8.43 79.41 8.37 79.32 8.33 79.22 8.3 79.13 8.27 78.99 8.21 78.84 8.16 78.69 8.11 78.61 8.09 78.52 8.06 78.44 8.04 78.28 7.99 78.12 7.96 77.96 7.92 77.88 7.91 77.8 7.89 77.72 7.88 77.55 7.85 77.38 7.82 77.2 7.8 77.14 7.79 77.07 7.79 77 7.78 76.81 7.76 76.62 7.76 76.43 7.75 76.38 7.75 76.32 7.75 76.27 7.75 76.06 7.75 75.86 7.76 75.65 7.78 75.61 7.78 75.57 7.78 75.53 7.79 75.31 7.81 75.09 7.84 74.87 7.88 74.84 7.89 74.82 7.89 74.79 7.9 74.55 7.94 74.31 8 74.08 8.07 74.07 8.07 74.07 8.07 74.06 8.07 73.58 8.22 73.11 8.41 72.65 8.64 72.55 8.7 72.46 8.76 72.36 8.82 72.24 8.88 72.12 8.95 72.01 9.02 71.88 9.1 71.76 9.2 71.64 9.29 71.54 9.36 71.44 9.43 71.34 9.5 71.34 9.5 71.3 9.54 71.3 9.54 71.1 9.7 70.9 9.88 70.71 10.07 70.71 10.07 10.07 70.73 10.07 70.73 9.88 70.92 9.7 71.12 9.54 71.32 9.54 71.32 9.5 71.36 9.5 71.36 9.43 71.46 9.36 71.56 9.29 71.66 9.19 71.78 9.1 71.9 9.02 72.03 8.95 72.15 8.88 72.27 8.81 72.39 8.76 72.48 8.7 72.57 8.64 72.67 8.41 73.12 8.22 73.6 8.08 74.08 8.07 74.08 8.07 74.09 8.07 74.09 8 74.33 7.94 74.57 7.9 74.81 7.89 74.84 7.89 74.86 7.88 74.89 7.84 75.11 7.81 75.33 7.79 75.55 7.79 75.59 7.78 75.63 7.78 75.67 7.76 75.88 7.75 76.08 7.75 76.29 7.75 76.34 7.75 76.4 7.75 76.45 7.76 76.64 7.76 76.83 7.78 77.02 7.79 77.09 7.79 77.16 7.8 77.22 7.82 77.4 7.85 77.57 7.88 77.74 7.89 77.82 7.91 77.9 7.92 77.98 7.96 78.14 8 78.3 8.04 78.46 8.06 78.54 8.09 78.63 8.11 78.71 8.16 78.86 8.21 79.01 8.27 79.15 8.3 79.24 8.34 79.34 8.37 79.43 8.43 79.56 8.5 79.7 8.56 79.84 8.61 79.93 8.65 80.02 8.7 80.11 8.77 80.24 8.85 80.37 8.93 80.5 8.98 80.59 9.03 80.67 9.09 80.76 9.18 80.9 9.29 81.03 9.39 81.16 9.44 81.23 9.49 81.31 9.55 81.37 9.71 81.57 9.88 81.77 10.07 81.95 10.25 82.14 10.45 82.31 10.65 82.47 10.71 82.53 10.79 82.58 10.86 82.63 10.99 82.74 11.12 82.84 11.26 82.93 11.35 82.99 11.43 83.04 11.52 83.09 11.65 83.17 11.78 83.25 11.91 83.32 12 83.37 12.09 83.41 12.18 83.46 12.32 83.52 12.46 83.59 12.59 83.65 12.68 83.69 12.78 83.72 12.87 83.75 13.01 83.81 13.16 83.86 13.3 83.91 13.39 83.93 13.48 83.96 13.56 83.98 13.72 84.03 13.88 84.06 14.04 84.1 14.12 84.11 14.2 84.13 14.28 84.14 14.45 84.17 14.62 84.2 14.8 84.22 14.86 84.23 14.93 84.23 15 84.24 15.19 84.26 15.38 84.27 15.57 84.27 15.62 84.27 15.68 84.27 15.73 84.27 15.94 84.27 16.14 84.26 16.35 84.24 16.39 84.24 16.43 84.24 16.47 84.23 16.69 84.21 16.91 84.18 17.13 84.14 17.16 84.13 17.18 84.13 17.21 84.12 17.45 84.08 17.69 84.02 17.93 83.95 17.93 83.95 17.94 83.95 17.94 83.95 18.42 83.8 18.89 83.61 19.35 83.38 19.44 83.33 19.54 83.27 19.63 83.21 19.75 83.14 19.87 83.08 19.99 83 20.11 82.92 20.24 82.83 20.36 82.74 20.46 82.66 20.56 82.6 20.66 82.52 20.66 82.52 20.7 82.49 20.7 82.49 20.9 82.32 21.1 82.14 21.29 81.95 21.29 81.95 81.93 21.29 81.93 21.29 82.12 21.1 82.3 20.9 82.46 20.7 82.46 20.7 82.5 20.66 82.5 20.66 82.57 20.56 82.64 20.46 82.71 20.37 82.8 20.24 82.9 20.12 82.98 19.99 83.05 19.88 83.12 19.76 83.18 19.65 83.24 19.55 83.3 19.45 83.35 19.35 83.59 18.9 83.78 18.42 83.92 17.94 83.93 17.94 83.93 17.93 83.93 17.92 84 17.69 84.06 17.45 84.1 17.21 84.11 17.18 84.11 17.16 84.12 17.13 84.16 16.91 84.19 16.69 84.21 16.47 84.21 16.43 84.22 16.39 84.22 16.35 84.24 16.14 84.25 15.94 84.25 15.73 84.25 15.68 84.25 15.62 84.25 15.57ZM 86.84 28.3C 86.84 28.3 83.78 24.29 83.78 24.29 83.78 24.29 24.29 83.81 24.29 83.81 24.29 83.81 28.29 86.86 28.29 86.86 31.67 89.44 36.49 89.11 39.5 86.11 39.5 86.11 86.08 39.51 86.08 39.51 89.09 36.5 89.41 31.68 86.84 28.29 86.84 28.29 86.84 28.3 86.84 28.3ZM 68.07 27.28C 66.71 28.64 64.86 29.85 62.36 30.43 55.79 31.97 54.05 38.71 54.03 38.78 53.94 39.09 51.9 45.86 45.43 47.37 39.72 48.71 37.76 55.03 37.74 55.09 37.63 55.42 35.1 62.37 29.01 63.79 23.65 65.05 21.76 71.04 21.74 71.1 21.63 71.45 21.26 71.64 20.92 71.54 20.57 71.43 20.37 71.06 20.48 70.72 20.56 70.44 22.6 63.94 28.71 62.51 33.99 61.28 36.37 55.01 36.48 54.7 36.64 54.2 38.77 47.58 45.13 46.09 50.86 44.75 52.74 38.5 52.76 38.43 52.83 38.15 54.72 30.87 62.06 29.15 68.62 27.62 70.23 21.03 70.25 20.96 70.33 20.61 70.69 20.39 71.04 20.47 71.39 20.55 71.61 20.91 71.53 21.26 71.48 21.46 70.71 24.64 68.07 27.28Z" fill="rgb(149,149,149)"/></svg>